<svg xmlns="http://www.w3.org/2000/svg" viewBox="0 0 67.5 112.36">
  <defs>
    <style>
      .a, .b {
        fill: none;
        stroke: #101111;
        stroke-miterlimit: 10;
      }

      .a {
        stroke-width: 0.81px;
      }

      .c {
        fill: #eee;
      }
    </style>
  </defs>
  <g>
    <g>
      <polyline class="a" points="46.99 99.64 35.18 110.93 35.25 110.93 23.44 99.64"/>
      <line class="a" x1="35.22" y1="63.7" x2="35.22" y2="106.85"/>
    </g>
    <g>
      <rect class="b" x="1.12" y="1.53" width="65.27" height="89.86" rx="32.63"/>
      <path class="c" d="M33.75,5.53A28.67,28.67,0,0,1,62.39,34.16v24.6a28.64,28.64,0,0,1-57.27,0V34.16A28.66,28.66,0,0,1,33.75,5.53m0-4h0A32.63,32.63,0,0,0,1.12,34.16v24.6A32.63,32.63,0,0,0,33.75,91.39h0A32.63,32.63,0,0,0,66.39,58.76V34.16A32.63,32.63,0,0,0,33.75,1.53Z"/>
    </g>
  </g>
</svg>
