<svg xmlns="http://www.w3.org/2000/svg" viewBox="0 0 508.14 508.14">
  <defs>
    <style>
      .a {
        fill: #101111;
      }

      .b {
        fill: #e6e6e6;
      }
    </style>
  </defs>
  <path class="a" d="M433,75.17A253,253,0,0,0,75.17,433,253,253,0,0,0,433,75.17Zm-178.9,341.4c-89.6,0-162.5-72.9-162.5-162.5s72.9-162.5,162.5-162.5,162.5,72.9,162.5,162.5S343.67,416.57,254.07,416.57Z"/>
  <g>
    <g>
      <path class="b" d="M204,49.56l-4.83,1.6c-1.34-3.6-4.62-4.95-8.58-3.63-3.7,1.22-5.68,3.94-4.67,7,2.6,7.84,19.22-4.28,23.21,7.79,1.93,5.84-1.94,11.11-9.18,13.51-7.43,2.46-13.45-.15-15.67-6.25l5-1.64c1.23,3.59,4.84,5.33,9.58,3.76,4.15-1.37,6.34-4.37,5.3-7.52-2.59-7.84-19.28,4-23.17-7.71-1.89-5.69,1.63-10.8,8.42-13C196,41.25,201.88,43.54,204,49.56Z"/>
      <path class="b" d="M226.82,69.14c-7.2,1.23-13.31-2.93-14.52-9.93s3.19-13,10.37-14.2c6.34-1.09,12.14,2.3,13.84,8l-4.92.84a7.38,7.38,0,0,0-8.19-4.63c-4.35.75-6.91,4.6-6.13,9.14s4.47,7.31,8.82,6.57a7.38,7.38,0,0,0,6.23-7.11L237.2,57C237.49,63,233.15,68.05,226.82,69.14Z"/>
      <path class="b" d="M242.29,66.68l-.89-14.47c-.36-5.75,3.36-9.34,10.17-9.76l.25,4.12c-3.64.22-5.68,2.22-5.46,5.77l.86,14Z"/>
      <path class="b" d="M279.48,55c-.31,7.1-5.82,12-13.11,11.68S254,61,254.3,53.9s5.87-12,13.16-11.67S279.79,47.91,279.48,55Zm-20.14-.89c-.21,4.65,2.81,8.1,7.17,8.29s7.73-3,7.93-7.62-2.81-8.1-7.22-8.3S259.54,49.52,259.34,54.12Z"/>
      <path class="b" d="M292.41,35.54l-4.83,32.85-4.84-.71,4.83-32.86Z"/>
      <path class="b" d="M304.56,37.81l-6.69,32.54-4.79-1,6.68-32.53Z"/>
      <path class="b" d="M347.77,69.8c-3.71,9.12-12.73,12.81-22.07,9L315.61,74.7l12.52-30.77L338.23,48C347.56,51.84,351.44,60.78,347.77,69.8Zm-4.92-2c2.66-6.54,0-12.79-6.42-15.42l-5.21-2.12-9,22.15,5.2,2.12C333.86,77.1,340.15,74.37,342.85,67.75Z"/>
      <path class="b" d="M371,89.39c-3.69,6.07-10.87,7.71-17.11,3.92s-8.11-11-4.41-17,10.91-7.69,17.14-3.89S374.72,83.32,371,89.39ZM353.8,78.91c-2.42,4-1.44,8.45,2.29,10.72s8.2,1.12,10.63-2.86,1.43-8.45-2.34-10.75S356.2,75,353.8,78.91Z"/>
      <path class="b" d="M409,106.06l-9.75,11c-3.72,4.21-8.86,4.6-13,.94-2.81-2.47-3.89-5.67-3.13-8.71-2.92,1.13-6.22.45-9-2-4.14-3.66-4.39-8.81-.67-13l9.75-11,3.71,3.28-9.85,11.15c-2.07,2.34-2,5.19.2,7.16s5.11,1.69,7.17-.65L394.28,93,398,96.28l-9.85,11.15c-2.06,2.34-2,5.23.25,7.2s5.06,1.65,7.13-.68l9.85-11.16Z"/>
      <path class="b" d="M406.15,118c4.74-3.83,10.7-3,14.71,2s3.59,11-1.15,14.86L409,143.44l-3.11-3.85,10.76-8.68c2.88-2.32,3.34-5.65,1.11-8.41s-5.58-3-8.46-.71l-10.76,8.68-3.11-3.85Z"/>
      <path class="b" d="M459.14,195.44l-1.64-4.82c3.59-1.37,4.91-4.65,3.57-8.61-1.25-3.68-4-5.64-7-4.6-7.82,2.65,4.43,19.17-7.61,23.26-5.82,2-11.13-1.85-13.58-9.08-2.51-7.41.05-13.45,6.13-15.71l1.68,5c-3.58,1.27-5.29,4.89-3.69,9.62,1.41,4.13,4.43,6.3,7.56,5.24,7.82-2.65-4.2-19.26,7.53-23.24,5.68-1.93,10.81,1.55,13.11,8.33C467.38,187.32,465.14,193.25,459.14,195.44Z"/>
      <path class="b" d="M439.75,218.39c-1.29-7.18,2.82-13.33,9.82-14.59s13,3.08,14.28,10.26c1.14,6.33-2.21,12.15-7.89,13.9l-.88-4.91a7.37,7.37,0,0,0,4.56-8.23c-.78-4.35-4.65-6.87-9.18-6.06s-7.28,4.53-6.5,8.88a7.37,7.37,0,0,0,7.16,6.17l.87,4.87C446,229,440.89,224.73,439.75,218.39Z"/>
      <path class="b" d="M442.33,233.86l14.46-1c5.74-.4,9.37,3.3,9.84,10.1l-4.12.28c-.25-3.64-2.27-5.66-5.81-5.42l-14,1Z"/>
      <path class="b" d="M454.29,271c-7.1-.26-12-5.73-11.78-13s5.59-12.43,12.69-12.17,12,5.77,11.78,13.06S461.39,271.2,454.29,271ZM455,250.8c-4.65-.17-8.08,2.87-8.24,7.24s3,7.7,7.69,7.87,8.08-2.88,8.24-7.29S459.63,251,455,250.8Z"/>
      <path class="b" d="M473.87,283.71,441,279.15l.67-4.85,32.9,4.56Z"/>
      <path class="b" d="M471.69,295.87l-32.59-6.42.95-4.81,32.58,6.42Z"/>
      <path class="b" d="M440,339.35c-9.14-3.64-12.9-12.63-9.18-22l4-10.13,30.86,12.28-4,10.12C458,339,449.08,343,440,339.35Zm2-4.94c6.56,2.61,12.79-.07,15.37-6.54l2.07-5.22-22.21-8.84L435.2,319C432.62,325.5,435.4,331.77,442,334.41Z"/>
      <path class="b" d="M420.62,362.77c-6.1-3.65-7.8-10.82-4.05-17.08s10.89-8.2,17-4.55,7.78,10.86,4,17.12S426.71,366.42,420.62,362.77ZM431,345.47c-4-2.39-8.47-1.37-10.71,2.38s-1.05,8.2,2.94,10.6,8.47,1.37,10.74-2.42S434.92,347.83,431,345.47Z"/>
      <path class="b" d="M404.23,400.92l-11.12-9.67c-4.24-3.69-4.67-8.83-1-13,2.45-2.83,5.64-3.94,8.69-3.2-1.16-2.91-.51-6.22,1.95-9.05,3.62-4.16,8.77-4.46,13-.77l11.12,9.67-3.24,3.73-11.23-9.76c-2.36-2.05-5.21-2-7.16.26s-1.65,5.12.7,7.16l11.23,9.77-3.21,3.69L402.7,380c-2.35-2.05-5.24-1.95-7.19.3s-1.62,5.08.73,7.12l11.23,9.77Z"/>
      <path class="b" d="M392.32,398.12c3.86,4.71,3.1,10.68-1.84,14.72s-11,3.68-14.87-1l-8.76-10.69,3.83-3.14,8.75,10.7c2.35,2.86,5.68,3.29,8.43,1s3-5.6.64-8.46l-8.76-10.7,3.82-3.13Z"/>
      <path class="b" d="M315.25,451.7l4.81-1.67c1.39,3.58,4.69,4.87,8.64,3.5,3.67-1.28,5.6-4,4.55-7.08-2.72-7.79-19.15,4.58-23.33-7.43-2-5.8,1.77-11.14,9-13.65,7.39-2.57,13.45-.05,15.76,6l-4.94,1.72c-1.3-3.57-4.93-5.25-9.64-3.61-4.13,1.43-6.28,4.47-5.19,7.6,2.72,7.79,19.22-4.35,23.29,7.34,2,5.67-1.46,10.83-8.22,13.18C323.44,459.88,317.49,457.68,315.25,451.7Z"/>
      <path class="b" d="M292.16,432.49c7.17-1.34,13.35,2.72,14.67,9.7s-3,13-10.15,14.37c-6.32,1.18-12.17-2.11-14-7.78l4.91-.93a7.38,7.38,0,0,0,8.27,4.51c4.34-.82,6.83-4.71,6-9.24s-4.58-7.24-8.92-6.43a7.38,7.38,0,0,0-6.12,7.21l-4.86.91C281.58,438.83,285.83,433.68,292.16,432.49Z"/>
      <path class="b" d="M276.75,435.18l1.12,14.46c.44,5.74-3.22,9.39-10,9.92l-.32-4.12c3.64-.28,5.65-2.31,5.37-5.85l-1.08-14Z"/>
      <path class="b" d="M239.73,447.43c.2-7.1,5.63-12.08,12.92-11.87s12.47,5.49,12.27,12.59-5.68,12.08-13,11.88S239.53,454.53,239.73,447.43Zm20.15.58c.13-4.65-2.94-8.06-7.3-8.18s-7.68,3.09-7.81,7.75,2.94,8.05,7.35,8.18S259.75,452.61,259.88,448Z"/>
      <path class="b" d="M227.1,467.11l4.31-32.93,4.86.63L232,467.75Z"/>
      <path class="b" d="M214.92,465l6.16-32.64,4.82.91-6.17,32.63Z"/>
      <path class="b" d="M171.22,433.71c3.56-9.17,12.52-13,21.91-9.34l10.16,3.94-12,31-10.15-3.95C171.7,451.67,167.69,442.8,171.22,433.71Zm4.94,2c-2.55,6.58.18,12.79,6.67,15.31l5.23,2,8.67-22.28-5.24-2C185,426.2,178.76,429,176.16,435.69Z"/>
      <path class="b" d="M147.63,414.47c3.6-6.12,10.75-7.87,17-4.18s8.28,10.83,4.68,16.95-10.79,7.86-17.08,4.16S144,420.6,147.63,414.47ZM165,424.69c2.36-4,1.3-8.48-2.46-10.69s-8.22-1-10.58,3-1.3,8.47,2.5,10.71S162.67,428.66,165,424.69Z"/>
      <path class="b" d="M109.38,398.41l9.58-11.2c3.65-4.26,8.79-4.73,13-1.14,2.85,2.43,4,5.61,3.26,8.66,2.91-1.18,6.22-.55,9.07,1.88,4.19,3.59,4.52,8.74.87,13l-9.58,11.19-3.75-3.21,9.67-11.31c2-2.37,1.94-5.22-.32-7.16s-5.13-1.6-7.16.77l-9.67,11.3L120.61,408l9.67-11.31c2-2.37,1.91-5.25-.35-7.19s-5.09-1.57-7.12.8l-9.68,11.3Z"/>
      <path class="b" d="M112.08,386.48c-4.68,3.9-10.65,3.18-14.73-1.73s-3.77-11,.92-14.88L108.89,361l3.17,3.8-10.63,8.84c-2.84,2.37-3.25,5.7-1,8.44s5.63,2.93,8.47.57l10.63-8.85,3.16,3.8Z"/>
      <path class="b" d="M57.88,309.81l1.71,4.79c-3.57,1.43-4.84,4.74-3.43,8.67,1.3,3.66,4.08,5.58,7.11,4.5,7.77-2.78-4.73-19.11,7.25-23.39,5.78-2.07,11.15,1.68,13.71,8.87,2.64,7.37.17,13.45-5.87,15.81l-1.76-4.93c3.55-1.32,5.21-5,3.53-9.67-1.47-4.12-4.52-6.24-7.64-5.13-7.78,2.78,4.51,19.19-7.16,23.36-5.65,2-10.84-1.38-13.25-8.12C49.76,318.06,51.91,312.09,57.88,309.81Z"/>
      <path class="b" d="M76.91,286.57c1.41,7.16-2.61,13.38-9.58,14.74s-13-2.87-14.44-10c-1.24-6.31,2-12.18,7.67-14l1,4.89a7.4,7.4,0,0,0-4.44,8.31c.85,4.33,4.76,6.8,9.28,5.91s7.21-4.64,6.36-9a7.39,7.39,0,0,0-7.25-6.06l-1-4.85C70.5,276,75.68,280.26,76.91,286.57Z"/>
      <path class="b" d="M74.1,271.17,59.66,272.4c-5.74.49-9.42-3.14-10-9.93l4.11-.35c.31,3.63,2.36,5.62,5.9,5.32l14-1.19Z"/>
      <path class="b" d="M61.57,234.27c7.1.15,12.12,5.53,12,12.83s-5.4,12.51-12.5,12.36-12.13-5.58-12-12.88S54.47,234.12,61.57,234.27Zm-.42,20.15c4.65.1,8-3,8.12-7.37s-3.15-7.65-7.81-7.74-8,3-8.12,7.41S56.54,254.33,61.15,254.42Z"/>
      <path class="b" d="M41.79,221.78l33,4.06-.6,4.86-33-4.06Z"/>
      <path class="b" d="M43.79,209.59l32.68,5.91-.88,4.82-32.68-5.91Z"/>
      <path class="b" d="M74.75,165.65c9.2,3.49,13.1,12.42,9.52,21.84L80.4,197.68l-31.05-11.8,3.86-10.18C56.79,166.27,65.64,162.19,74.75,165.65Zm-1.94,5c-6.6-2.5-12.79.28-15.26,6.79l-2,5.25,22.34,8.48,2-5.25C82.37,179.38,79.5,173.15,72.81,170.61Z"/>
      <path class="b" d="M93.78,141.92c6.16,3.55,8,10.69,4.32,17s-10.76,8.37-16.91,4.82S73.25,153,76.9,146.7,87.63,138.37,93.78,141.92ZM83.71,159.39c4,2.32,8.49,1.23,10.67-2.55s.92-8.22-3.11-10.55-8.49-1.24-10.7,2.59S79.72,157.08,83.71,159.39Z"/>
      <path class="b" d="M109.57,103.54,120.84,113c4.3,3.62,4.81,8.76,1.25,13-2.41,2.86-5.59,4-8.64,3.32,1.2,2.9.6,6.22-1.82,9.09-3.55,4.22-8.7,4.59-13,1L87.37,129.9l3.18-3.79,11.38,9.59c2.39,2,5.24,1.91,7.16-.37s1.57-5.14-.82-7.15l-11.38-9.59,3.16-3.75,11.38,9.59c2.38,2,5.27,1.87,7.18-.41s1.54-5.1-.84-7.11l-11.38-9.59Z"/>
      <path class="b" d="M121.51,106.15c-3.93-4.65-3.26-10.62,1.61-14.74s10.95-3.86,14.89.8l8.92,10.55-3.77,3.2L134.23,95.4c-2.38-2.82-5.72-3.2-8.44-.91s-2.89,5.65-.5,8.47l8.92,10.56-3.77,3.19Z"/>
    </g>
    <circle class="b" cx="433.07" cy="156.07" r="10"/>
    <circle class="b" cx="357.07" cy="426.07" r="10"/>
    <circle class="b" cx="161.07" cy="79.07" r="10"/>
    <circle class="b" cx="83.07" cy="352.07" r="10"/>
  </g>
</svg>
